REM MD5 48fe8e41c6a56a83d951057d0850ff2e
FILE "SuperLite 1500 Series - Wizard's Harmony (Japan).bin" BINARY
  TRACK 01 MODE2/2352
    INDEX 01 00:00:00
  TRACK 02 AUDIO
    INDEX 00 42:54:31
    INDEX 01 42:56:31
  TRACK 03 AUDIO
    INDEX 00 45:47:37
    INDEX 01 45:49:37
  TRACK 04 AUDIO
    INDEX 00 50:21:37
    INDEX 01 50:23:37
  TRACK 05 AUDIO
    INDEX 00 53:14:53
    INDEX 01 53:16:53
REM LEADOUT 58:03:43
